REM DIRINDEX 1\2,1\3,1\4,1\5,1\6
REM DIRNAME cjc030,folder01,folder02,folder03,folder04,folder05
TITLE ""
FILE "Disc6Track05.mp3" MP3
  TRACK 01 AUDIO
    TITLE "2:cjc030_10472"
    INDEX 01 00:00:00
  TRACK 02 AUDIO
    TITLE "0:"
    INDEX 01 00:03:10
  TRACK 03 AUDIO
    TITLE "3:cjc030_10473"
    INDEX 01 00:03:61
  TRACK 04 AUDIO
    TITLE "0:"
    INDEX 01 00:05:03
  TRACK 05 AUDIO
    TITLE "4:cjc030_10474"
    INDEX 01 00:05:14
  TRACK 06 AUDIO
    TITLE "0:"
    INDEX 01 00:07:15
  TRACK 07 AUDIO
    TITLE "5:cjc030_10475"
    INDEX 01 00:07:25
  TRACK 08 AUDIO
    TITLE "0:"
    INDEX 01 00:08:44
  TRACK 09 AUDIO
    TITLE "6:cjc030_10476"
    INDEX 01 00:08:56
  TRACK 10 AUDIO
    TITLE "0:"
    INDEX 01 00:13:45
  TRACK 11 AUDIO
    TITLE "3:cjc030_10477"
    INDEX 01 00:14:17
  TRACK 12 AUDIO
    TITLE "0:"
    INDEX 01 00:15:34
  TRACK 13 AUDIO
    TITLE "4:cjc030_10478"
    INDEX 01 00:15:46
  TRACK 14 AUDIO
    TITLE "0:"
    INDEX 01 00:17:61
  TRACK 15 AUDIO
    TITLE "5:cjc030_10479"
    INDEX 01 00:17:69
  TRACK 16 AUDIO
    TITLE "0:"
    INDEX 01 00:19:11
  TRACK 17 AUDIO
    TITLE "6:cjc030_10480"
    INDEX 01 00:19:24
  TRACK 18 AUDIO
    TITLE "0:"
    INDEX 01 00:24:02
  TRACK 19 AUDIO
    TITLE "3:cjc030_10481"
    INDEX 01 00:24:51
  TRACK 20 AUDIO
    TITLE "0:"
    INDEX 01 00:25:62
  TRACK 21 AUDIO
    TITLE "4:cjc030_10482"
    INDEX 01 00:25:74
  TRACK 22 AUDIO
    TITLE "0:"
    INDEX 01 00:27:10
  TRACK 23 AUDIO
    TITLE "5:cjc030_10483"
    INDEX 01 00:27:20
  TRACK 24 AUDIO
    TITLE "0:"
    INDEX 01 00:28:33
  TRACK 25 AUDIO
    TITLE "6:cjc030_10484"
    INDEX 01 00:28:43
  TRACK 26 AUDIO
    TITLE "0:"
    INDEX 01 00:31:29
  TRACK 27 AUDIO
    TITLE "3:cjc030_10485"
    INDEX 01 00:32:01
  TRACK 28 AUDIO
    TITLE "0:"
    INDEX 01 00:33:15
  TRACK 29 AUDIO
    TITLE "4:cjc030_10486"
    INDEX 01 00:33:26
  TRACK 30 AUDIO
    TITLE "0:"
    INDEX 01 00:36:44
  TRACK 31 AUDIO
    TITLE "5:cjc030_10487"
    INDEX 01 00:36:54
  TRACK 32 AUDIO
    TITLE "0:"
    INDEX 01 00:37:69
  TRACK 33 AUDIO
    TITLE "6:cjc030_10488"
    INDEX 01 00:38:04
  TRACK 34 AUDIO
    TITLE "0:"
    INDEX 01 00:39:54
  TRACK 35 AUDIO
    TITLE "3:cjc030_10489"
    INDEX 01 00:40:26
  TRACK 36 AUDIO
    TITLE "0:"
    INDEX 01 00:41:30
  TRACK 37 AUDIO
    TITLE "4:cjc030_10490"
    INDEX 01 00:41:40
  TRACK 38 AUDIO
    TITLE "0:"
    INDEX 01 00:43:19
  TRACK 39 AUDIO
    TITLE "5:cjc030_10491"
    INDEX 01 00:43:27
  TRACK 40 AUDIO
    TITLE "0:"
    INDEX 01 00:44:32
  TRACK 41 AUDIO
    TITLE "6:cjc030_10492"
    INDEX 01 00:44:63
  TRACK 42 AUDIO
    TITLE "0:"
    INDEX 01 00:49:69
  TRACK 43 AUDIO
    TITLE "3:cjc030_10493"
    INDEX 01 00:50:41
  TRACK 44 AUDIO
    TITLE "0:"
    INDEX 01 00:51:46
  TRACK 45 AUDIO
    TITLE "4:cjc030_10494"
    INDEX 01 00:51:54
  TRACK 46 AUDIO
    TITLE "0:"
    INDEX 01 00:54:44
  TRACK 47 AUDIO
    TITLE "5:cjc030_10495"
    INDEX 01 00:54:54
  TRACK 48 AUDIO
    TITLE "0:"
    INDEX 01 00:55:61
  TRACK 49 AUDIO
    TITLE "6:cjc030_10496"
    INDEX 01 00:55:71
  TRACK 50 AUDIO
    TITLE "0:"
    INDEX 01 00:59:67
  TRACK 51 AUDIO
    TITLE "3:cjc030_10497"
    INDEX 01 01:00:37
  TRACK 52 AUDIO
    TITLE "0:"
    INDEX 01 01:01:46
  TRACK 53 AUDIO
    TITLE "4:cjc030_10498"
    INDEX 01 01:01:58
  TRACK 54 AUDIO
    TITLE "0:"
    INDEX 01 01:04:47
  TRACK 55 AUDIO
    TITLE "5:cjc030_10499"
    INDEX 01 01:04:54
  TRACK 56 AUDIO
    TITLE "0:"
    INDEX 01 01:05:64
  TRACK 57 AUDIO
    TITLE "6:cjc030_10500"
    INDEX 01 01:06:02
  TRACK 58 AUDIO
    TITLE "0:"
    INDEX 01 01:09:26
  TRACK 59 AUDIO
    TITLE "3:cjc030_10501"
    INDEX 01 01:09:73
  TRACK 60 AUDIO
    TITLE "0:"
    INDEX 01 01:11:03
  TRACK 61 AUDIO
    TITLE "4:cjc030_10502"
    INDEX 01 01:11:15
  TRACK 62 AUDIO
    TITLE "0:"
    INDEX 01 01:12:07
  TRACK 63 AUDIO
    TITLE "5:cjc030_10503"
    INDEX 01 01:12:13
  TRACK 64 AUDIO
    TITLE "0:"
    INDEX 01 01:13:22
  TRACK 65 AUDIO
    TITLE "6:cjc030_10504"
    INDEX 01 01:13:34
  TRACK 66 AUDIO
    TITLE "0:"
    INDEX 01 01:15:15
